<?xml version="1.0" encoding="UTF-8"?>
<svg version="1.1" xmlns="http://www.w3.org/2000/svg" width="900" height="204">
<path d="M0 0 C25.41 0 50.82 0 77 0 C77.99 9.24 78.98 18.48 80 28 C84.76289198 55.29008377 91.37784158 80.0243015 114 98 C114.66 98.33 115.32 98.66 116 99 C116.66 91.74 117.32 84.48 118 77 C127.65735285 76.78221614 136.76861338 77.57107211 146.3125 79 C147.65026977 79.19354552 148.98816034 79.38625796 150.32617188 79.578125 C153.5520581 80.04395695 156.77649281 80.51802815 160 81 C160.21919929 86.67413007 159.69565141 90.93993531 157.8125 96.375 C157.59053955 97.01767822 157.3685791 97.66035645 157.13989258 98.32250977 C155.19948798 103.78360629 152.80163645 108.93321067 150 114 C159.97741229 116.63168621 169.72501088 118.51928384 180.0168457 119.40380859 C185.9149667 119.9149667 185.9149667 119.9149667 187 121 C187.08847743 123.52094076 187.11527301 126.01430893 187.09765625 128.53515625 C187.09553383 129.66503212 187.09553383 129.66503212 187.09336853 130.81773376 C187.08775376 133.2326956 187.07519883 135.64756601 187.0625 138.0625 C187.0574869 139.69596221 187.05292366 141.32942586 187.04882812 142.96289062 C187.03777954 146.97529585 187.02050506 150.98763241 187 155 C177.60648926 155.17372019 168.59320254 155.0485561 159.3125 153.375 C158.30719238 153.20186279 157.30188477 153.02872559 156.26611328 152.8503418 C147.44223012 151.24870392 138.90121704 148.90196775 130.3359375 146.26953125 C122.52957177 143.86610771 122.52957177 143.86610771 114.9375 146.1875 C100.24146119 153.35629942 85.44473489 155.34476154 69.25 155.125 C67.96867187 155.11597656 66.68734375 155.10695312 65.3671875 155.09765625 C62.24458779 155.07435327 59.12239975 155.04164054 56 155 C56 154.34 56 153.68 56 153 C57.05316406 152.731875 58.10632813 152.46375 59.19140625 152.1875 C73.6892131 148.32107976 86.30651945 142.8963379 97 132 C96.26136719 131.46632812 95.52273437 130.93265625 94.76171875 130.3828125 C77.91260913 118.00824406 65.62436406 104.5103376 56 86 C55.39285156 84.83984375 54.78570312 83.6796875 54.16015625 82.484375 C47.38374955 69.01603713 43.69029721 54.79663463 41 40 C40.67 77.95 40.34 115.9 40 155 C26.8 155 13.6 155 0 155 C0 103.85 0 52.7 0 0 Z " fill="#191919" transform="translate(52,23)"/>
<path d="M0 0 C22.90353908 0 22.90353908 0 31.09843922 7.54727936 C31.88113446 8.41508152 31.88113446 8.41508152 32.67964172 9.30041504 C33.28606318 9.959272 33.89248463 10.61812897 34.51728249 11.29695129 C35.44652062 12.31011665 35.44652062 12.31011665 36.39453125 13.34375 C37.72746625 14.71595265 39.06518809 16.08351991 40.40739441 17.44665527 C43.89360199 21.01228407 47.31206822 24.63627349 50.71923828 28.27728271 C54.83828027 32.65106252 59.03895298 36.94638601 63.22566986 41.25523376 C69.54761892 47.77946659 75.75914564 54.39362923 82 61 C82.33 40.87 82.66 20.74 83 0 C88.61 0 94.22 0 100 0 C100 26.07 100 52.14 100 79 C77.09646092 79 77.09646092 79 68.90156078 71.45272064 C68.37976396 70.87418587 67.85796713 70.29565109 67.32035828 69.69958496 C66.71393682 69.040728 66.10751537 68.38187103 65.48271751 67.70304871 C64.86322542 67.02760513 64.24373333 66.35216156 63.60546875 65.65625 C62.27253375 64.28404735 60.93481191 62.91648009 59.59260559 61.55334473 C56.10639801 57.98771593 52.68793178 54.36372651 49.28076172 50.72271729 C45.16171973 46.34893748 40.96104702 42.05361399 36.77433014 37.74476624 C30.45238108 31.22053341 24.24085436 24.60637077 18 18 C17.67 38.13 17.34 58.26 17 79 C11.39 79 5.78 79 0 79 C0 52.93 0 26.86 0 0 Z " fill="#191919" transform="translate(293,98)"/>
<path d="M0 0 C6.35730817 6.08216272 9.88743362 11.26961753 10.671875 20.1796875 C10.81837997 28.57042697 8.41778971 34.54202011 2.71484375 40.640625 C-8.8527292 51.70526 -22.40969147 52.21925492 -37.65234375 51.953125 C-48.80055135 51.50941524 -59.34039134 48.04662167 -67.09765625 39.6875 C-73.05727853 32.18066809 -74.20452658 25.09700557 -73.28515625 15.640625 C-71.51464813 7.37033202 -67.0561817 2.47547292 -60.28515625 -2.359375 C-43.72122552 -12.80117749 -15.22009746 -12.74240717 0 0 Z M-53.34765625 10.328125 C-56.67345194 14.56595923 -57.75414965 18.28472035 -57.28515625 23.640625 C-56.27935897 29.25461596 -53.79584207 32.94211316 -49.28125 36.38671875 C-41.58915203 41.21874115 -33.17493012 41.55782389 -24.28515625 40.640625 C-18.66549136 39.18726339 -13.31452565 36.91419861 -9.28515625 32.640625 C-6.29351172 27.37945703 -5.3591592 22.57542425 -6.28515625 16.640625 C-8.16644202 11.04156022 -12.0625335 7.26668954 -17.28515625 4.640625 C-29.57899289 0.45954691 -43.83213813 0.69726726 -53.34765625 10.328125 Z " fill="#191919" transform="translate(769.28515625,126.359375)"/>
<path d="M0 0 C5.61 0 11.22 0 17 0 C17.03738281 2.75730469 17.07476562 5.51460938 17.11328125 8.35546875 C17.15952457 11.03303857 17.21074799 13.71047015 17.26245117 16.38793945 C17.29565549 18.2452755 17.32370141 20.10271137 17.34643555 21.96020508 C17.38006442 24.63405798 17.43238374 27.30699993 17.48828125 29.98046875 C17.49467117 30.80773972 17.5010611 31.63501068 17.50764465 32.48735046 C17.62503672 37.11581106 17.97918789 40.26018026 21 44 C26.7630215 47.48182549 32.37442341 47.80255975 39 47 C42.85963159 46.0232769 46.42125268 44.7419565 50 43 C50.65615799 42.69723145 51.31231598 42.39446289 51.98835754 42.08251953 C56.22563729 39.92159733 56.22563729 39.92159733 58.7429657 36.08329773 C59.02252327 33.75663855 59.05647819 31.54193594 59 29.19921875 C59.01087646 28.36284378 59.02175293 27.52646881 59.03295898 26.66474915 C59.05906864 24.00434667 59.03030994 21.34779865 59 18.6875 C59.00809366 16.87953743 59.01977252 15.07158711 59.03515625 13.26367188 C59.06497362 8.84151294 59.04560394 4.42199834 59 0 C64.28 0 69.56 0 75 0 C75 19.14 75 38.28 75 58 C70.05 58 65.1 58 60 58 C59.505 54.535 59.505 54.535 59 51 C58.21496094 51.40992188 57.42992187 51.81984375 56.62109375 52.2421875 C55.57050781 52.78101563 54.51992188 53.31984375 53.4375 53.875 C52.40496094 54.40867188 51.37242187 54.94234375 50.30859375 55.4921875 C39.83219901 60.26655393 25.19755344 61.39636181 14.1875 57.4375 C8.42394221 54.57102259 3.44473877 50.02453482 1 44 C-0.06442163 38.99669725 -0.13045764 34.18728138 -0.09765625 29.1015625 C-0.0962413 28.26660248 -0.09482635 27.43164246 -0.09336853 26.57138062 C-0.08780174 23.92254958 -0.07525547 21.2738052 -0.0625 18.625 C-0.0574807 16.82161581 -0.05291855 15.01823029 -0.04882812 13.21484375 C-0.03869701 8.80983614 -0.0191153 4.4050143 0 0 Z " fill="#191919" transform="translate(465,119)"/>
<path d="M0 0 C18.02630971 -2.22819096 18.02630971 -2.22819096 24.33544922 1.30957031 C28.31840568 4.52190515 31.50031883 8.33013527 34.62939453 12.35742188 C36.49395129 14.59196727 38.65329854 16.2948738 41 18 C44.48654476 16.5158627 46.64191072 14.53785948 49.25 11.8125 C50.054375 11.01585937 50.85875 10.21921875 51.6875 9.3984375 C53.97665109 7.11966737 53.97665109 7.11966737 55.625 4.8515625 C58.23243256 1.7803078 60.30338196 0.20638275 64.40039062 -0.29199219 C70.60925507 -0.60046643 76.79890202 -0.38252435 83 0 C79.58364123 4.11074063 76.14995354 7.96331951 72.125 11.5 C71.26648438 12.25796875 70.40796875 13.0159375 69.5234375 13.796875 C68.27433594 14.88742188 68.27433594 14.88742188 67 16 C66.27039063 16.64453125 65.54078125 17.2890625 64.7890625 17.953125 C60.91290638 21.36889476 56.98518611 24.71222146 53 28 C57.83118307 33.97541063 63.24901814 38.92183496 69 44 C71.17548035 45.94872887 73.33948385 47.90970728 75.5 49.875 C76.274646 50.57157715 76.274646 50.57157715 77.06494141 51.28222656 C79.416612 53.42324134 81.22340008 55.33510012 83 58 C64.49166442 60.43354795 64.49166442 60.43354795 57.44140625 55.0234375 C54.20941767 52.11383504 51.30742784 48.94307067 48.48046875 45.64257812 C46.52874656 43.47714493 44.34006679 41.72885531 42 40 C39.12264116 41.30064396 37.09817272 42.66759085 34.90625 44.93359375 C34.35066406 45.50013672 33.79507813 46.06667969 33.22265625 46.65039062 C32.65417969 47.24013672 32.08570313 47.82988281 31.5 48.4375 C30.36698471 49.60519943 29.23162929 50.77063359 28.09375 51.93359375 C27.34641602 52.7078772 27.34641602 52.7078772 26.58398438 53.49780273 C23.05553094 56.84406876 20.99256109 58.38401026 16.015625 58.29296875 C15.08105469 58.28330078 14.14648438 58.27363281 13.18359375 58.26367188 C12.21550781 58.23853516 11.24742187 58.21339844 10.25 58.1875 C9.26644531 58.17396484 8.28289063 58.16042969 7.26953125 58.14648438 C4.84579585 58.11118726 2.42317855 58.06188054 0 58 C6.16736444 50.62109788 6.16736444 50.62109788 9.75 47.625 C12.92402168 44.92525742 16.03822494 42.17441762 19.125 39.375 C22.6845614 36.16150707 26.28439311 33.03115299 30 30 C25.84139517 24.98539971 21.48525694 20.46336221 16.6875 16.0625 C16.03322021 15.45639893 15.37894043 14.85029785 14.70483398 14.22583008 C10.34509161 10.19859675 5.93331123 6.23521725 1.44140625 2.35546875 C0.96574219 1.90816406 0.49007812 1.46085937 0 1 C0 0.67 0 0.34 0 0 Z " fill="#191919" transform="translate(791,119)"/>
<path d="M0 0 C0 3.63 0 7.26 0 11 C-4.30054461 10.51130175 -8.21807487 9.65136794 -12.375 8.4375 C-22.81356326 5.77540409 -36.13343799 5.04824229 -46 10 C-50.33205567 12.82313741 -53.87998886 15.77328137 -55 21 C-55.44719064 26.63460206 -55.19721016 30.14906044 -52 35 C-44.15285421 42.62916952 -34.52162267 43.33758479 -24.140625 43.296875 C-18.60962727 43.03998506 -13.52145787 41.55643736 -8.2421875 39.97265625 C-5 39 -5 39 0 38 C0 41.96 0 45.92 0 50 C-1.89453221 50.64964023 -3.79068649 51.29455115 -5.6875 51.9375 C-7.27111328 52.47697266 -7.27111328 52.47697266 -8.88671875 53.02734375 C-24.13338001 57.79072977 -42.51176916 56.59104642 -56.78515625 49.64453125 C-64.03067692 45.66429677 -69.13817729 41.14808906 -71.9375 33.25 C-73.8836226 25.62768649 -73.29036941 17.73233265 -69.34375 10.83984375 C-62.11603387 0.94375568 -50.50591216 -3.3873899 -38.8125 -5.37109375 C-24.99421965 -7.21201597 -12.89418766 -4.59175408 0 0 Z " fill="#191919" transform="translate(634,123)"/>
<path d="M0 0 C5.28 0 10.56 0 16 0 C16 27.39 16 54.78 16 83 C10.72 83 5.44 83 0 83 C0 55.61 0 28.22 0 0 Z " fill="#191919" transform="translate(657,94)"/>
<path d="M0 0 C5.28 0 10.56 0 16 0 C16 19.14 16 38.28 16 58 C10.72 58 5.44 58 0 58 C0 38.86 0 19.72 0 0 Z " fill="#191919" transform="translate(423,119)"/>
<path d="M0 0 C13.6332574 0.96355353 13.6332574 0.96355353 20 2 C18.21652621 17.59334518 6.54049021 31.79083424 -5.125 41.5 C-9.4228343 44.73367405 -13.96971907 48.01607455 -19 50 C-19.66 49.67 -20.32 49.34 -21 49 C-20.34773437 48.15179688 -19.69546875 47.30359375 -19.0234375 46.4296875 C-8.49648587 32.43339774 -2.66306722 17.2967534 0 0 Z " fill="#D8D8D8" transform="translate(180,111)"/>
<path d="M0 0 C5.94 0 11.88 0 18 0 C18 4.29 18 8.58 18 13 C12.06 13 6.12 13 0 13 C0 8.71 0 4.42 0 0 Z " fill="#191919" transform="translate(422,96)"/>
</svg>
