<?xml version="1.0" encoding="UTF-8"?>
<svg version="1.1" xmlns="http://www.w3.org/2000/svg" width="900" height="900">
<path d="M0 0 C76.56 0 153.12 0 232 0 C233.65 17.82 235.3 35.64 237 54 C243.32180437 106.51960551 250.9477597 162.12194185 275 210 C275.4552002 210.91458984 275.91040039 211.82917969 276.37939453 212.77148438 C281.96397973 223.92246986 287.56620415 234.95115344 295 245 C295.75539063 246.02609375 296.51078125 247.0521875 297.2890625 248.109375 C306.00296845 259.75710859 315.39742554 271.02348231 326 281 C326.58394531 281.55429687 327.16789062 282.10859375 327.76953125 282.6796875 C334.71350494 289.00339339 342.45213264 294.42836647 350 300 C352.77319503 291.48865142 354.66832888 282.99770235 356.1875 274.1875 C356.35411133 273.22191162 356.52072266 272.25632324 356.69238281 271.26147461 C358.41451826 260.96490812 359.21022355 250.87296793 359.5625 240.4375 C359.60568359 239.23802734 359.64886719 238.03855469 359.69335938 236.80273438 C359.79856802 233.86858207 359.90070883 230.9343575 360 228 C365.90075459 227.91223152 371.53663632 228.16082543 377.38012695 228.94628906 C378.55821426 229.09758522 378.55821426 229.09758522 379.76010132 229.25193787 C382.33691264 229.58430743 384.9125705 229.92484014 387.48828125 230.265625 C389.31400293 230.50311579 391.13978444 230.74014696 392.96562195 230.97674561 C396.79647479 231.47433956 400.62681464 231.9756557 404.45678711 232.47998047 C409.27772967 233.114764 414.09946729 233.74321739 418.92155647 234.36922455 C436.13862014 236.60490883 453.35220073 238.86622026 470.54296875 241.296875 C472.25665398 241.53727509 472.25665398 241.53727509 474.00495911 241.78253174 C475.03223618 241.93002869 476.05951324 242.07752563 477.11791992 242.22949219 C477.9971965 242.35523621 478.87647308 242.48098022 479.78239441 242.61053467 C482 243 482 243 485 244 C486.10068862 278.72495052 468.01786363 316.23395307 450 345 C485.32886739 359.40129939 527.42877324 361.79914755 565 365 C565.8314725 387.42544639 566.13527725 409.81223154 566.06866455 432.25170898 C566.05814282 436.19579492 566.05380748 440.13988824 566.04882812 444.08398438 C566.03833437 451.722675 566.02144014 459.36133138 566 467 C561.5761005 467.02987765 557.15225809 467.05114762 552.72828674 467.06523132 C551.23065668 467.071117 549.73303316 467.07915288 548.23542786 467.08958435 C490.38060289 467.48178341 421.20525556 454.66895544 368.29541016 430.77880859 C364.73839938 429.57195214 362.89459665 430.57949333 359.59106445 432.13232422 C358.690896 432.6017041 357.79072754 433.07108398 356.86328125 433.5546875 C323.4542003 450.56999198 288.30838469 460.07363056 251 464 C250.19271957 464.08814468 249.38543915 464.17628937 248.55369568 464.2671051 C241.32733212 464.99805486 234.17366211 465.1455992 226.9140625 465.1328125 C225.08589493 465.13424759 225.08589493 465.13424759 223.22079468 465.13571167 C220.65761259 465.13638838 218.09442874 465.13456985 215.53125 465.13037109 C211.64318931 465.12502501 207.75524461 465.13032877 203.8671875 465.13671875 C201.36197892 465.1360577 198.8567704 465.13477597 196.3515625 465.1328125 C194.63376083 465.13584885 194.63376083 465.13584885 192.8812561 465.13894653 C185.21346756 465.11706713 177.63635186 464.68852111 170 464 C170 463.01 170 462.02 170 461 C170.79881592 460.82460693 171.59763184 460.64921387 172.4206543 460.46850586 C206.86948809 452.84039095 239.36793943 442.32878902 268 421 C268.6182666 420.54560547 269.2365332 420.09121094 269.87353516 419.62304688 C279.18151845 412.73191677 287.63571706 404.99564433 296 397 C295.21302734 396.45085937 295.21302734 396.45085937 294.41015625 395.890625 C292.70288147 394.69752116 290.9973877 393.50186752 289.29296875 392.3046875 C286.90802649 390.63101789 284.51241898 388.97355884 282.11328125 387.3203125 C267.13583133 376.94604793 253.11737704 365.64917798 240 353 C239.41444336 352.43635742 238.82888672 351.87271484 238.22558594 351.29199219 C231.44910559 344.73282281 224.98040424 338.1015527 219.12890625 330.6875 C216.88364115 327.8531103 214.54091562 325.12002994 212.1875 322.375 C152.77540653 250.95212838 128.56003784 156.72045406 121 66 C120.67 198 120.34 330 120 466 C80.4 466 40.8 466 0 466 C0 312.22 0 158.44 0 0 Z " fill="#DDDDDD" transform="translate(167,217)"/>
<path d="M0 0 C10.91335856 0.56219424 21.62347228 1.78002398 32.4375 3.3125 C35.69100306 3.76595149 38.94505316 4.21539287 42.19921875 4.6640625 C43.01484283 4.77689072 43.83046692 4.88971893 44.67080688 5.00596619 C50.1778785 5.76326272 55.68923027 6.47394909 61.20703125 7.1484375 C61.93486313 7.23757919 62.66269501 7.32672089 63.4125824 7.41856384 C66.84392075 7.83728201 70.27584634 8.24966759 73.70874023 8.65551758 C80.25122915 9.44832493 86.59826249 10.42727877 93 12 C88.59535336 53.40367846 63.65226655 96.83495833 35.37109375 126.51171875 C33.36392041 128.61809341 31.48581128 130.76611653 29.625 133 C6.99184352 158.88934172 -24.01939351 176.00780476 -55.72412109 188.12890625 C-57.70236528 188.88608017 -59.67406968 189.66029758 -61.64453125 190.4375 C-74.9350272 195.48252812 -88.94838541 198.43440874 -102.9375 200.8125 C-103.66420898 200.93641113 -104.39091797 201.06032227 -105.13964844 201.18798828 C-109.13109459 201.8256805 -112.95987916 202.12012879 -117 202 C-113.19888086 198.8455741 -109.20152544 196.1187961 -105.0625 193.4375 C-50.8289506 157.62514885 -17.40092009 99.94262075 -4.37451172 36.9765625 C-1.92678358 24.64785821 -0.41597696 12.56079856 0 0 Z " fill="#1A1A1A" transform="translate(542,462)"/>
</svg>
